<svg width="122" height="41" viewBox="0 0 122 41" fill="none" xmlns="http://www.w3.org/2000/svg">
<rect x="0.505341" y="0.505341" width="120.271" height="39.4166" rx="6.56943" fill="#0C0D10"/>
<rect x="0.505341" y="0.505341" width="120.271" height="39.4166" rx="6.56943" stroke="#A6A6A6" stroke-width="1.01068"/>
<path d="M82.3966 19.406V21.7215H80.9453V23.24H82.3966V28.3995C82.3966 30.1613 83.1936 30.866 85.1987 30.866C85.5511 30.866 85.8867 30.8241 86.1803 30.7737V29.272C85.9286 29.2972 85.7692 29.314 85.4924 29.314C84.5947 29.314 84.2004 28.8945 84.2004 27.9381V23.24H86.1803V21.7215H84.2004V19.406H82.3966Z" fill="white"/>
<path d="M91.2881 30.9919C93.956 30.9919 95.5919 29.2049 95.5919 26.2434C95.5919 23.2987 93.9476 21.5034 91.2881 21.5034C88.6203 21.5034 86.9759 23.2987 86.9759 26.2434C86.9759 29.2049 88.6119 30.9919 91.2881 30.9919ZM91.2881 29.3895C89.7193 29.3895 88.8384 28.2401 88.8384 26.2434C88.8384 24.2635 89.7193 23.1058 91.2881 23.1058C92.8486 23.1058 93.7378 24.2635 93.7378 26.2434C93.7378 28.2317 92.8486 29.3895 91.2881 29.3895Z" fill="white"/>
<path d="M96.9916 30.8157H98.7953V25.4213C98.7953 24.1377 99.7601 23.2736 101.128 23.2736C101.446 23.2736 101.983 23.3323 102.134 23.3826V21.6041C101.941 21.5537 101.597 21.5286 101.329 21.5286C100.138 21.5286 99.1225 22.1829 98.8624 23.0806H98.7282V21.6796H96.9916V30.8157Z" fill="white"/>
<path d="M106.613 23.0387C107.947 23.0387 108.819 23.9699 108.861 25.4045H104.247C104.348 23.9783 105.279 23.0387 106.613 23.0387ZM108.853 28.3492C108.517 29.0623 107.771 29.4566 106.68 29.4566C105.237 29.4566 104.306 28.4415 104.247 26.8391V26.7384H110.699V26.1092C110.699 23.24 109.163 21.5034 106.621 21.5034C104.046 21.5034 102.41 23.3575 102.41 26.277C102.41 29.1965 104.012 30.9919 106.63 30.9919C108.719 30.9919 110.178 29.9851 110.59 28.3492H108.853Z" fill="white"/>
<path d="M70.5681 27.4419C70.7072 29.6853 72.5767 31.12 75.3592 31.12C78.3331 31.12 80.1939 29.6157 80.1939 27.2158C80.1939 25.3289 79.133 24.2854 76.5592 23.6854L75.1766 23.3463C73.5419 22.9637 72.881 22.4507 72.881 21.5551C72.881 20.4247 73.9071 19.6856 75.4462 19.6856C76.907 19.6856 77.9157 20.4073 78.0983 21.5638H79.9939C79.8808 19.4508 78.02 17.9639 75.4723 17.9639C72.7332 17.9639 70.9072 19.4508 70.9072 21.6855C70.9072 23.5289 71.9419 24.6246 74.2114 25.155L75.8288 25.5463C77.4896 25.9376 78.22 26.5115 78.22 27.468C78.22 28.581 77.0722 29.3896 75.507 29.3896C73.8288 29.3896 72.6636 28.6331 72.4984 27.4419H70.5681Z" fill="white"/>
<path d="M51.8833 21.5286C50.6416 21.5286 49.5678 22.1494 49.0141 23.1897H48.8798V21.6796H47.1432V33.8527H48.9469V29.4314H49.0896C49.5678 30.3962 50.5997 30.9667 51.9 30.9667C54.2071 30.9667 55.6753 29.1462 55.6753 26.2434C55.6753 23.3407 54.2071 21.5286 51.8833 21.5286ZM51.3715 29.3475C49.8614 29.3475 48.9134 28.1562 48.9134 26.2518C48.9134 24.339 49.8614 23.1477 51.3799 23.1477C52.9068 23.1477 53.8212 24.3139 53.8212 26.2434C53.8212 28.1814 52.9068 29.3475 51.3715 29.3475Z" fill="white"/>
<path d="M61.9868 21.5286C60.7452 21.5286 59.6713 22.1494 59.1176 23.1897H58.9834V21.6796H57.2468V33.8527H59.0505V29.4314H59.1931C59.6713 30.3962 60.7032 30.9667 62.0036 30.9667C64.3107 30.9667 65.7789 29.1462 65.7789 26.2434C65.7789 23.3407 64.3107 21.5286 61.9868 21.5286ZM61.4751 29.3475C59.965 29.3475 59.017 28.1562 59.017 26.2518C59.017 24.339 59.965 23.1477 61.4835 23.1477C63.0103 23.1477 63.9248 24.3139 63.9248 26.2434C63.9248 28.1814 63.0103 29.3475 61.4751 29.3475Z" fill="white"/>
<path d="M43.907 30.8157H45.9765L41.4462 18.2682H39.3506L34.8203 30.8157H36.8203L37.9767 27.4853H42.7592L43.907 30.8157ZM40.2984 20.5464H40.4462L42.2636 25.8506H38.4724L40.2984 20.5464Z" fill="white"/>
<path d="M36.0319 8.80417V14.8572H38.2173C40.021 14.8572 41.0655 13.7456 41.0655 11.8118C41.0655 9.90738 40.0127 8.80417 38.2173 8.80417H36.0319ZM36.9715 9.6599H38.1124C39.3667 9.6599 40.1091 10.4569 40.1091 11.8244C40.1091 13.2128 39.3792 14.0014 38.1124 14.0014H36.9715V9.6599Z" fill="white"/>
<path d="M44.2644 14.9452C45.5983 14.9452 46.4163 14.0518 46.4163 12.571C46.4163 11.0987 45.5941 10.201 44.2644 10.201C42.9305 10.201 42.1083 11.0987 42.1083 12.571C42.1083 14.0518 42.9263 14.9452 44.2644 14.9452ZM44.2644 14.1441C43.48 14.1441 43.0396 13.5694 43.0396 12.571C43.0396 11.5811 43.48 11.0022 44.2644 11.0022C45.0446 11.0022 45.4893 11.5811 45.4893 12.571C45.4893 13.5652 45.0446 14.1441 44.2644 14.1441Z" fill="white"/>
<path d="M53.3821 10.2891H52.4802L51.6664 13.7749H51.5951L50.6555 10.2891H49.7914L48.8518 13.7749H48.7847L47.9667 10.2891H47.0522L48.3106 14.8572H49.2377L50.1773 11.493H50.2486L51.1924 14.8572H52.1278L53.3821 10.2891Z" fill="white"/>
<path d="M54.4207 14.8572H55.3225V12.1851C55.3225 11.472 55.7462 11.0274 56.4132 11.0274C57.0801 11.0274 57.3989 11.3923 57.3989 12.1264V14.8572H58.3008V11.8999C58.3008 10.8134 57.7387 10.201 56.7194 10.201C56.0315 10.201 55.5784 10.5072 55.3561 11.0148H55.289V10.2891H54.4207V14.8572Z" fill="white"/>
<path d="M59.7211 14.8572H60.623V8.50635H59.7211V14.8572Z" fill="white"/>
<path d="M64.0148 14.9452C65.3488 14.9452 66.1667 14.0518 66.1667 12.571C66.1667 11.0987 65.3446 10.201 64.0148 10.201C62.6809 10.201 61.8588 11.0987 61.8588 12.571C61.8588 14.0518 62.6767 14.9452 64.0148 14.9452ZM64.0148 14.1441C63.2304 14.1441 62.79 13.5694 62.79 12.571C62.79 11.5811 63.2304 11.0022 64.0148 11.0022C64.7951 11.0022 65.2397 11.5811 65.2397 12.571C65.2397 13.5652 64.7951 14.1441 64.0148 14.1441Z" fill="white"/>
<path d="M68.8539 14.1734C68.3631 14.1734 68.0065 13.9343 68.0065 13.5232C68.0065 13.1205 68.2918 12.9066 68.921 12.8647L70.0368 12.7934V13.1751C70.0368 13.7414 69.5334 14.1734 68.8539 14.1734ZM68.6232 14.9327C69.223 14.9327 69.7222 14.6726 69.9948 14.2154H70.0662V14.8572H70.9345V11.7363C70.9345 10.7715 70.2885 10.201 69.1433 10.201C68.1072 10.201 67.3689 10.7044 67.2767 11.4888H68.1492C68.2498 11.1658 68.598 10.9812 69.1014 10.9812C69.718 10.9812 70.0368 11.2539 70.0368 11.7363V12.1306L68.7993 12.2019C67.7129 12.269 67.1005 12.743 67.1005 13.5652C67.1005 14.3999 67.7423 14.9327 68.6232 14.9327Z" fill="white"/>
<path d="M73.9949 14.9327C74.6241 14.9327 75.1569 14.6348 75.4295 14.1357H75.5008V14.8572H76.3649V8.50635H75.4631V11.0148H75.396C75.1485 10.5114 74.6199 10.2136 73.9949 10.2136C72.8414 10.2136 72.0989 11.128 72.0989 12.571C72.0989 14.0182 72.833 14.9327 73.9949 14.9327ZM74.2508 11.0232C75.0059 11.0232 75.4799 11.623 75.4799 12.5752C75.4799 13.5316 75.0101 14.1231 74.2508 14.1231C73.4874 14.1231 73.0301 13.54 73.0301 12.571C73.0301 11.6104 73.4916 11.0232 74.2508 11.0232Z" fill="white"/>
<path d="M82.2132 14.9452C83.5471 14.9452 84.3651 14.0518 84.3651 12.571C84.3651 11.0987 83.543 10.201 82.2132 10.201C80.8793 10.201 80.0571 11.0987 80.0571 12.571C80.0571 14.0518 80.8751 14.9452 82.2132 14.9452ZM82.2132 14.1441C81.4288 14.1441 80.9884 13.5694 80.9884 12.571C80.9884 11.5811 81.4288 11.0022 82.2132 11.0022C82.9934 11.0022 83.4381 11.5811 83.4381 12.571C83.4381 13.5652 82.9934 14.1441 82.2132 14.1441Z" fill="white"/>
<path d="M85.5589 14.8572H86.4608V12.1851C86.4608 11.472 86.8845 11.0274 87.5514 11.0274C88.2184 11.0274 88.5372 11.3923 88.5372 12.1264V14.8572H89.4391V11.8999C89.4391 10.8134 88.877 10.201 87.8576 10.201C87.1697 10.201 86.7167 10.5072 86.4944 11.0148H86.4272V10.2891H85.5589V14.8572Z" fill="white"/>
<path d="M93.5927 9.15233V10.3101H92.867V11.0693H93.5927V13.6491C93.5927 14.53 93.9912 14.8823 94.9937 14.8823C95.1699 14.8823 95.3377 14.8614 95.4845 14.8362V14.0853C95.3586 14.0979 95.2789 14.1063 95.1405 14.1063C94.6917 14.1063 94.4945 13.8966 94.4945 13.4184V11.0693H95.4845V10.3101H94.4945V9.15233H93.5927Z" fill="white"/>
<path d="M96.6951 14.8572H97.5969V12.1893C97.5969 11.4972 98.008 11.0316 98.7463 11.0316C99.3839 11.0316 99.7237 11.4007 99.7237 12.1306V14.8572H100.626V11.9083C100.626 10.8218 100.026 10.2052 99.0525 10.2052C98.3646 10.2052 97.8822 10.5114 97.6599 11.0232H97.5886V8.50635H96.6951V14.8572Z" fill="white"/>
<path d="M103.879 10.9686C104.546 10.9686 104.982 11.4343 105.003 12.1516H102.696C102.746 11.4385 103.212 10.9686 103.879 10.9686ZM104.999 13.6239C104.831 13.9805 104.458 14.1776 103.913 14.1776C103.191 14.1776 102.725 13.6701 102.696 12.8689V12.8185H105.922V12.5039C105.922 11.0693 105.154 10.201 103.883 10.201C102.595 10.201 101.777 11.128 101.777 12.5878C101.777 14.0476 102.579 14.9452 103.887 14.9452C104.932 14.9452 105.662 14.4419 105.867 13.6239H104.999Z" fill="white"/>
<path d="M25.0336 20.5175C25.0555 18.8186 25.9679 17.211 27.4153 16.3211C26.5022 15.017 24.9728 14.1902 23.3816 14.1404C21.6844 13.9622 20.039 15.156 19.1742 15.156C18.2926 15.156 16.961 14.1581 15.5271 14.1876C13.6581 14.248 11.9158 15.3106 11.0064 16.9446C9.05179 20.3288 10.5098 25.3024 12.3822 28.0379C13.319 29.3774 14.4138 30.8737 15.8464 30.8206C17.2483 30.7625 17.7719 29.9267 19.4641 29.9267C21.1405 29.9267 21.6318 30.8206 23.0934 30.7869C24.5977 30.7625 25.5455 29.4414 26.4494 28.0892C27.1225 27.1348 27.6404 26.0799 27.984 24.9637C26.2162 24.216 25.0357 22.4369 25.0336 20.5175Z" fill="white"/>
<path d="M22.2728 12.3414C23.093 11.3568 23.497 10.0912 23.3992 8.81348C22.1461 8.94509 20.9886 9.54398 20.1574 10.4908C19.3445 11.4159 18.9215 12.6592 19.0014 13.8881C20.255 13.901 21.4873 13.3184 22.2728 12.3414Z" fill="white"/>
</svg>
