<svg width="32" height="32" viewBox="0 0 32 32" fill="none" xmlns="http://www.w3.org/2000/svg">
<path d="M12.6267 20.3732C12.3734 20.3732 12.12 20.2799 11.92 20.0799C10.8267 18.9866 10.2267 17.5332 10.2267 15.9999C10.2267 12.8132 12.8134 10.2266 16 10.2266C17.5334 10.2266 18.9867 10.8266 20.08 11.9199C20.2667 12.1066 20.3734 12.3599 20.3734 12.6266C20.3734 12.8932 20.2667 13.1466 20.08 13.3332L13.3334 20.0799C13.1334 20.2799 12.88 20.3732 12.6267 20.3732ZM16 12.2266C13.92 12.2266 12.2267 13.9199 12.2267 15.9999C12.2267 16.6666 12.4 17.3066 12.72 17.8666L17.8667 12.7199C17.3067 12.3999 16.6667 12.2266 16 12.2266Z" fill="#1F222A"/>
<path d="M7.4667 24.6801C7.24004 24.6801 7.00004 24.6001 6.81337 24.4401C5.3867 23.2267 4.1067 21.7334 3.01337 20.0001C1.60004 17.8001 1.60004 14.2134 3.01337 12.0001C6.2667 6.90672 11 3.97339 16 3.97339C18.9334 3.97339 21.8267 4.98672 24.36 6.89339C24.8 7.22672 24.8934 7.85339 24.56 8.29339C24.2267 8.73339 23.6 8.82672 23.16 8.49339C20.9734 6.84005 18.4934 5.97339 16 5.97339C11.6934 5.97339 7.57337 8.56006 4.69337 13.0801C3.69337 14.6401 3.69337 17.3601 4.69337 18.9201C5.69337 20.4801 6.84004 21.8267 8.1067 22.9201C8.52004 23.2801 8.57337 23.9067 8.21337 24.3334C8.0267 24.5601 7.7467 24.6801 7.4667 24.6801Z" fill="#1F222A"/>
<path d="M16 28.0266C14.2267 28.0266 12.4934 27.6666 10.8267 26.9599C10.32 26.7466 10.08 26.1599 10.2934 25.6532C10.5067 25.1466 11.0934 24.9066 11.6 25.1199C13.0134 25.7199 14.4934 26.0266 15.9867 26.0266C20.2934 26.0266 24.4134 23.4399 27.2934 18.9199C28.2934 17.3599 28.2934 14.6399 27.2934 13.0799C26.88 12.4266 26.4267 11.7999 25.9467 11.2132C25.6 10.7866 25.6667 10.1599 26.0934 9.79992C26.52 9.45325 27.1467 9.50658 27.5067 9.94658C28.0267 10.5866 28.5334 11.2799 28.9867 11.9999C30.4 14.1999 30.4 17.7866 28.9867 19.9999C25.7334 25.0932 21 28.0266 16 28.0266Z" fill="#1F222A"/>
<path d="M16.9199 21.6933C16.4533 21.6933 16.0266 21.36 15.9333 20.88C15.8266 20.3333 16.1866 19.8133 16.7333 19.72C18.1999 19.4533 19.4266 18.2266 19.6933 16.76C19.7999 16.2133 20.3199 15.8666 20.8666 15.96C21.4133 16.0666 21.7733 16.5866 21.6666 17.1333C21.2399 19.44 19.3999 21.2666 17.1066 21.6933C17.0399 21.68 16.9866 21.6933 16.9199 21.6933Z" fill="#1F222A"/>
<path d="M2.66671 30.3334C2.41338 30.3334 2.16004 30.24 1.96004 30.04C1.57338 29.6534 1.57338 29.0134 1.96004 28.6267L11.92 18.6667C12.3067 18.28 12.9467 18.28 13.3334 18.6667C13.72 19.0534 13.72 19.6934 13.3334 20.08L3.37338 30.04C3.17338 30.24 2.92004 30.3334 2.66671 30.3334Z" fill="#1F222A"/>
<path d="M19.3734 13.6266C19.12 13.6266 18.8667 13.5333 18.6667 13.3333C18.28 12.9466 18.28 12.3066 18.6667 11.9199L28.6267 1.95992C29.0134 1.57326 29.6534 1.57326 30.04 1.95992C30.4267 2.34659 30.4267 2.98659 30.04 3.37326L20.08 13.3333C19.88 13.5333 19.6267 13.6266 19.3734 13.6266Z" fill="#1F222A"/>
</svg>
