<svg width="20" height="20" viewBox="0 0 20 20" fill="none" xmlns="http://www.w3.org/2000/svg">
<path d="M16.6667 10.0001V15.0001C16.6667 16.8417 15.175 18.3334 13.3334 18.3334H6.66671C4.82504 18.3334 3.33337 16.8417 3.33337 15.0001V10.0001C3.33337 9.54175 3.70837 9.16675 4.16671 9.16675H5.80837C6.26671 9.16675 6.64171 9.54175 6.64171 10.0001V12.6167C6.64171 13.2334 6.98337 13.8001 7.52504 14.0917C7.76671 14.2251 8.03337 14.2917 8.30837 14.2917C8.62504 14.2917 8.94171 14.2001 9.21671 14.0167L10.0084 13.5001L10.7417 13.9917C11.25 14.3334 11.9 14.3751 12.4417 14.0834C12.9917 13.7917 13.3334 13.2334 13.3334 12.6084V10.0001C13.3334 9.54175 13.7084 9.16675 14.1667 9.16675H15.8334C16.2917 9.16675 16.6667 9.54175 16.6667 10.0001Z" fill="#212121"/>
<path d="M17.9167 5.83341V6.66675C17.9167 7.58341 17.475 8.33341 16.25 8.33341H3.75004C2.47504 8.33341 2.08337 7.58341 2.08337 6.66675V5.83341C2.08337 4.91675 2.47504 4.16675 3.75004 4.16675H16.25C17.475 4.16675 17.9167 4.91675 17.9167 5.83341Z" fill="#212121"/>
<path d="M9.69998 4.16662H5.09998C4.81665 3.85828 4.82498 3.38328 5.12498 3.08328L6.30832 1.89995C6.61665 1.59162 7.12498 1.59162 7.43332 1.89995L9.69998 4.16662Z" fill="#212121"/>
<path d="M14.8916 4.16662H10.2916L12.5583 1.89995C12.8666 1.59162 13.375 1.59162 13.6833 1.89995L14.8666 3.08328C15.1666 3.38328 15.175 3.85828 14.8916 4.16662Z" fill="#212121"/>
<path d="M11.6416 9.16675C12.1 9.16675 12.475 9.54175 12.475 10.0001V12.6084C12.475 13.2751 11.7333 13.6751 11.1833 13.3001L10.4333 12.8001C10.1583 12.6167 9.79995 12.6167 9.51662 12.8001L8.73328 13.3167C8.18328 13.6834 7.44995 13.2834 7.44995 12.6251V10.0001C7.44995 9.54175 7.82495 9.16675 8.28328 9.16675H11.6416Z" fill="#212121"/>
</svg>
