<svg width="137" height="41" viewBox="0 0 137 41" fill="none" xmlns="http://www.w3.org/2000/svg">
<rect x="0.505341" y="0.505341" width="135.431" height="39.4166" rx="4.54807" fill="black"/>
<rect x="0.505341" y="0.505341" width="135.431" height="39.4166" rx="4.54807" stroke="#A6A6A6" stroke-width="1.01068"/>
<path d="M68.8637 21.9832C66.4866 21.9832 64.5491 23.7914 64.5491 26.2817C64.5491 28.7568 66.4866 30.5801 68.8637 30.5801C71.2419 30.5801 73.1793 28.7568 73.1793 26.2817C73.1783 23.7914 71.2409 21.9832 68.8637 21.9832ZM68.8637 28.8882C67.561 28.8882 66.4381 27.8139 66.4381 26.2827C66.4381 24.7353 67.562 23.6771 68.8637 23.6771C70.1665 23.6771 71.2894 24.7353 71.2894 26.2827C71.2894 27.8129 70.1665 28.8882 68.8637 28.8882ZM59.4503 21.9832C57.0731 21.9832 55.1357 23.7914 55.1357 26.2817C55.1357 28.7568 57.0731 30.5801 59.4503 30.5801C61.8284 30.5801 63.7659 28.7568 63.7659 26.2817C63.7659 23.7914 61.8284 21.9832 59.4503 21.9832ZM59.4503 28.8882C58.1475 28.8882 57.0246 27.8139 57.0246 26.2827C57.0246 24.7353 58.1485 23.6771 59.4503 23.6771C60.753 23.6771 61.8759 24.7353 61.8759 26.2827C61.8769 27.8129 60.753 28.8882 59.4503 28.8882ZM48.2539 23.3032V25.1265H52.6181C52.4877 26.1523 52.1461 26.9012 51.6246 27.4217C50.9898 28.0564 49.9963 28.7568 48.2539 28.7568C45.5675 28.7568 43.4673 26.5909 43.4673 23.9046C43.4673 21.2182 45.5675 19.0523 48.2539 19.0523C49.7032 19.0523 50.7614 19.6223 51.5427 20.355L52.8293 19.0684C51.7378 18.0264 50.2894 17.229 48.2539 17.229C44.574 17.229 41.4803 20.2247 41.4803 23.9046C41.4803 27.5844 44.574 30.5801 48.2539 30.5801C50.2399 30.5801 51.7388 29.9282 52.9101 28.7073C54.1149 27.5026 54.4898 25.8087 54.4898 24.4412C54.4898 24.0188 54.4575 23.6276 54.3918 23.3022H48.2539V23.3032ZM94.0459 24.7192C93.6881 23.759 92.5966 21.9832 90.366 21.9832C88.1516 21.9832 86.3111 23.7257 86.3111 26.2817C86.3111 28.6911 88.1354 30.5801 90.5772 30.5801C92.547 30.5801 93.6871 29.3754 94.1601 28.675L92.6946 27.6976C92.2064 28.4142 91.5384 28.8862 90.5772 28.8862C89.6171 28.8862 88.9328 28.4466 88.4932 27.5834L94.2409 25.2063L94.0459 24.7192ZM88.1839 26.1523C88.1354 24.4907 89.4705 23.6448 90.4317 23.6448C91.1806 23.6448 91.8153 24.0198 92.0275 24.5564L88.1839 26.1523ZM83.5115 30.3204H85.3995V17.6858H83.5115V30.3204ZM80.4168 22.9444H80.3522C79.9287 22.4391 79.1141 21.9832 78.0892 21.9832C75.9395 21.9832 73.9697 23.8722 73.9697 26.2989C73.9697 28.7083 75.9395 30.5811 78.0892 30.5811C79.1151 30.5811 79.9287 30.1253 80.3522 29.6048H80.4168V30.2233C80.4168 31.8677 79.5375 32.747 78.1216 32.747C76.9654 32.747 76.2488 31.9172 75.9557 31.2168L74.3113 31.9011C74.7833 33.0401 76.0365 34.4409 78.1216 34.4409C80.336 34.4409 82.2088 33.1381 82.2088 29.9626V22.245H80.4179V22.9444H80.4168ZM78.252 28.8882C76.9492 28.8882 75.8587 27.7967 75.8587 26.2989C75.8587 24.7838 76.9492 23.6771 78.252 23.6771C79.5375 23.6771 80.5472 24.7838 80.5472 26.2989C80.5472 27.7967 79.5375 28.8882 78.252 28.8882ZM102.893 17.6858H98.3746V30.3204H100.26V25.5338H102.892C104.982 25.5338 107.038 24.0208 107.038 21.6103C107.038 19.1998 104.983 17.6858 102.893 17.6858ZM102.942 23.7752H100.26V19.4444H102.942C104.352 19.4444 105.152 20.6118 105.152 21.6103C105.152 22.5886 104.352 23.7752 102.942 23.7752ZM114.597 21.961C113.232 21.961 111.818 22.5624 111.233 23.8955L112.906 24.5938C113.264 23.8955 113.931 23.667 114.629 23.667C115.605 23.667 116.596 24.2522 116.612 25.2922V25.4226C116.271 25.2275 115.539 24.9354 114.646 24.9354C112.842 24.9354 111.004 25.9269 111.004 27.7795C111.004 29.4704 112.484 30.5589 114.141 30.5589C115.409 30.5589 116.108 29.9899 116.547 29.3228H116.611V30.2981H118.433V25.4539C118.434 23.2122 116.758 21.961 114.597 21.961ZM114.369 28.8852C113.752 28.8852 112.89 28.5759 112.89 27.8118C112.89 26.8365 113.963 26.4626 114.89 26.4626C115.718 26.4626 116.109 26.6415 116.612 26.8851C116.466 28.0564 115.458 28.8852 114.369 28.8852ZM125.065 22.2369L122.903 27.7148H122.838L120.594 22.2369H118.563L121.928 29.8928L120.009 34.1518H121.976L127.162 22.2369H125.065ZM108.079 30.3204H109.964V17.6858H108.079V30.3204Z" fill="white"/>
<path d="M47.9245 10.3525C47.9245 11.1995 47.6738 11.8736 47.1715 12.3769C46.6015 12.9752 45.8577 13.2744 44.944 13.2744C44.0687 13.2744 43.3239 12.9712 42.7124 12.3648C42.0999 11.7574 41.7937 11.0054 41.7937 10.1079C41.7937 9.20943 42.0999 8.45748 42.7124 7.85107C43.3239 7.24365 44.0687 6.94045 44.944 6.94045C45.3786 6.94045 45.794 7.02535 46.1881 7.19413C46.5833 7.36393 46.8997 7.58931 47.1362 7.87129L46.6035 8.40493C46.2023 7.92485 45.6494 7.68532 44.943 7.68532C44.3042 7.68532 43.7524 7.90969 43.2865 8.35844C42.8206 8.80718 42.5881 9.39034 42.5881 10.1069C42.5881 10.8235 42.8206 11.4067 43.2865 11.8554C43.7524 12.3041 44.3042 12.5285 44.943 12.5285C45.6201 12.5285 46.1851 12.3031 46.6369 11.8513C46.93 11.5572 47.0998 11.1479 47.1453 10.6234H44.943V9.89467H47.881C47.9114 10.0533 47.9245 10.206 47.9245 10.3525Z" fill="white"/>
<path d="M52.5838 7.8198H49.8226V9.74212H52.313V10.4708H49.8226V12.3931H52.5838V13.139H49.0434V7.07493H52.5838V7.8198Z" fill="white"/>
<path d="M55.8694 13.139H55.0902V7.8198H53.3963V7.07493H57.5633V7.8198H55.8694V13.139Z" fill="white"/>
<path d="M60.5782 13.139V7.07493H61.3574V13.139H60.5782Z" fill="white"/>
<path d="M64.8131 13.139H64.0338V7.8198H62.3399V7.07493H66.507V7.8198H64.8131V13.139Z" fill="white"/>
<path d="M74.3951 12.3557C73.7988 12.9682 73.058 13.2744 72.1716 13.2744C71.2852 13.2744 70.5444 12.9682 69.9491 12.3557C69.3528 11.7433 69.0557 10.9933 69.0557 10.107C69.0557 9.22059 69.3528 8.47067 69.9491 7.8582C70.5444 7.24572 71.2852 6.93848 72.1716 6.93848C73.0529 6.93848 73.7928 7.24673 74.3911 7.86224C74.9894 8.47774 75.2886 9.22565 75.2886 10.107C75.2886 10.9933 74.9904 11.7433 74.3951 12.3557ZM70.5242 11.8474C70.973 12.3022 71.5217 12.5286 72.1716 12.5286C72.8215 12.5286 73.3713 12.3012 73.819 11.8474C74.2678 11.3925 74.4932 10.8124 74.4932 10.107C74.4932 9.40151 74.2678 8.82138 73.819 8.36657C73.3713 7.91176 72.8215 7.68537 72.1716 7.68537C71.5217 7.68537 70.973 7.91277 70.5242 8.36657C70.0765 8.82138 69.8511 9.40151 69.8511 10.107C69.8511 10.8124 70.0765 11.3925 70.5242 11.8474Z" fill="white"/>
<path d="M76.3821 13.139V7.07493H77.3302L80.2773 11.7918H80.3107L80.2773 10.6234V7.07493H81.0565V13.139H80.2429L77.1594 8.19274H77.126L77.1594 9.36109V13.139H76.3821Z" fill="white"/>
<path d="M47.9245 10.3525C47.9245 11.1995 47.6738 11.8736 47.1715 12.3769C46.6015 12.9752 45.8577 13.2744 44.944 13.2744C44.0687 13.2744 43.3239 12.9712 42.7124 12.3648C42.0999 11.7574 41.7937 11.0054 41.7937 10.1079C41.7937 9.20943 42.0999 8.45748 42.7124 7.85107C43.3239 7.24365 44.0687 6.94045 44.944 6.94045C45.3786 6.94045 45.794 7.02535 46.1881 7.19413C46.5833 7.36393 46.8997 7.58931 47.1362 7.87129L46.6035 8.40493C46.2023 7.92485 45.6494 7.68532 44.943 7.68532C44.3042 7.68532 43.7524 7.90969 43.2865 8.35844C42.8206 8.80718 42.5881 9.39034 42.5881 10.1069C42.5881 10.8235 42.8206 11.4067 43.2865 11.8554C43.7524 12.3041 44.3042 12.5285 44.943 12.5285C45.6201 12.5285 46.1851 12.3031 46.6369 11.8513C46.93 11.5572 47.0998 11.1479 47.1453 10.6234H44.943V9.89467H47.881C47.9114 10.0533 47.9245 10.206 47.9245 10.3525Z" stroke="white" stroke-width="0.202136" stroke-miterlimit="10"/>
<path d="M52.5838 7.8198H49.8226V9.74212H52.313V10.4708H49.8226V12.3931H52.5838V13.139H49.0434V7.07493H52.5838V7.8198Z" stroke="white" stroke-width="0.202136" stroke-miterlimit="10"/>
<path d="M55.8694 13.139H55.0902V7.8198H53.3963V7.07493H57.5633V7.8198H55.8694V13.139Z" stroke="white" stroke-width="0.202136" stroke-miterlimit="10"/>
<path d="M60.5782 13.139V7.07493H61.3574V13.139H60.5782Z" stroke="white" stroke-width="0.202136" stroke-miterlimit="10"/>
<path d="M64.8131 13.139H64.0338V7.8198H62.3399V7.07493H66.507V7.8198H64.8131V13.139Z" stroke="white" stroke-width="0.202136" stroke-miterlimit="10"/>
<path d="M74.3951 12.3557C73.7988 12.9682 73.058 13.2744 72.1716 13.2744C71.2852 13.2744 70.5444 12.9682 69.9491 12.3557C69.3528 11.7433 69.0557 10.9933 69.0557 10.107C69.0557 9.22059 69.3528 8.47067 69.9491 7.8582C70.5444 7.24572 71.2852 6.93848 72.1716 6.93848C73.0529 6.93848 73.7928 7.24673 74.3911 7.86224C74.9894 8.47774 75.2886 9.22565 75.2886 10.107C75.2886 10.9933 74.9904 11.7433 74.3951 12.3557ZM70.5242 11.8474C70.973 12.3022 71.5217 12.5286 72.1716 12.5286C72.8215 12.5286 73.3713 12.3012 73.819 11.8474C74.2678 11.3925 74.4932 10.8124 74.4932 10.107C74.4932 9.40151 74.2678 8.82138 73.819 8.36657C73.3713 7.91176 72.8215 7.68537 72.1716 7.68537C71.5217 7.68537 70.973 7.91277 70.5242 8.36657C70.0765 8.82138 69.8511 9.40151 69.8511 10.107C69.8511 10.8124 70.0765 11.3925 70.5242 11.8474Z" stroke="white" stroke-width="0.202136" stroke-miterlimit="10"/>
<path d="M76.3821 13.139V7.07493H77.3302L80.2773 11.7918H80.3107L80.2773 10.6234V7.07493H81.0565V13.139H80.2429L77.1594 8.19274H77.126L77.1594 9.36109V13.139H76.3821Z" stroke="white" stroke-width="0.202136" stroke-miterlimit="10"/>
<g filter="url(#filter0_ii_2952_4327)">
<path d="M10.5474 7.6187C10.2533 7.92999 10.0795 8.4131 10.0795 9.03871V31.3909C10.0795 32.0176 10.2533 32.4997 10.5474 32.8109L10.6222 32.8837L23.1435 20.3624V20.2148V20.0673L10.6222 7.54492L10.5474 7.6187Z" fill="url(#paint0_linear_2952_4327)"/>
<path d="M27.3167 24.5374L23.1436 20.3623V20.2147V20.0672L27.3177 15.8931L27.4117 15.9466L32.3569 18.7563C33.7688 19.5588 33.7688 20.8717 32.3569 21.6752L27.4117 24.4849L27.3167 24.5374Z" fill="url(#paint1_linear_2952_4327)"/>
<g filter="url(#filter1_i_2952_4327)">
<path d="M27.4116 24.484L23.1425 20.2148L10.5474 32.811C11.0123 33.3042 11.7814 33.3648 12.6476 32.8736L27.4116 24.484Z" fill="url(#paint2_linear_2952_4327)"/>
</g>
<path d="M27.4116 15.9456L12.6476 7.55695C11.7814 7.06475 11.0123 7.1264 10.5474 7.61961L23.1435 20.2157L27.4116 15.9456Z" fill="url(#paint3_linear_2952_4327)"/>
</g>
<defs>
<filter id="filter0_ii_2952_4327" x="10.0795" y="7.21729" width="23.3364" height="25.9956" filterUnits="userSpaceOnUse" color-interpolation-filters="sRGB">
<feFlood flood-opacity="0" result="BackgroundImageFix"/>
<feBlend mode="normal" in="SourceGraphic" in2="BackgroundImageFix" result="shape"/>
<feColorMatrix in="SourceAlpha" type="matrix" values="0 0 0 0 0 0 0 0 0 0 0 0 0 0 0 0 0 0 127 0" result="hardAlpha"/>
<feOffset dy="-0.151602"/>
<feComposite in2="hardAlpha" operator="arithmetic" k2="-1" k3="1"/>
<feColorMatrix type="matrix" values="0 0 0 0 0 0 0 0 0 0 0 0 0 0 0 0 0 0 0.12 0"/>
<feBlend mode="normal" in2="shape" result="effect1_innerShadow_2952_4327"/>
<feColorMatrix in="SourceAlpha" type="matrix" values="0 0 0 0 0 0 0 0 0 0 0 0 0 0 0 0 0 0 127 0" result="hardAlpha"/>
<feOffset dy="0.151602"/>
<feComposite in2="hardAlpha" operator="arithmetic" k2="-1" k3="1"/>
<feColorMatrix type="matrix" values="0 0 0 0 1 0 0 0 0 1 0 0 0 0 1 0 0 0 0.25 0"/>
<feBlend mode="normal" in2="effect1_innerShadow_2952_4327" result="effect2_innerShadow_2952_4327"/>
</filter>
<filter id="filter1_i_2952_4327" x="10.5474" y="20.2148" width="16.8643" height="12.998" filterUnits="userSpaceOnUse" color-interpolation-filters="sRGB">
<feFlood flood-opacity="0" result="BackgroundImageFix"/>
<feBlend mode="normal" in="SourceGraphic" in2="BackgroundImageFix" result="shape"/>
<feColorMatrix in="SourceAlpha" type="matrix" values="0 0 0 0 0 0 0 0 0 0 0 0 0 0 0 0 0 0 127 0" result="hardAlpha"/>
<feOffset dy="-0.151602"/>
<feComposite in2="hardAlpha" operator="arithmetic" k2="-1" k3="1"/>
<feColorMatrix type="matrix" values="0 0 0 0 0 0 0 0 0 0 0 0 0 0 0 0 0 0 0.08 0"/>
<feBlend mode="normal" in2="shape" result="effect1_innerShadow_2952_4327"/>
</filter>
<linearGradient id="paint0_linear_2952_4327" x1="22.0336" y1="8.80221" x2="5.07235" y2="25.7635" gradientUnits="userSpaceOnUse">
<stop stop-color="#00A0FF"/>
<stop offset="0.0066" stop-color="#00A1FF"/>
<stop offset="0.2601" stop-color="#00BEFF"/>
<stop offset="0.5122" stop-color="#00D2FF"/>
<stop offset="0.7604" stop-color="#00DFFF"/>
<stop offset="1" stop-color="#00E3FF"/>
</linearGradient>
<linearGradient id="paint1_linear_2952_4327" x1="34.1948" y1="20.2147" x2="9.74051" y2="20.2147" gradientUnits="userSpaceOnUse">
<stop stop-color="#FFE000"/>
<stop offset="0.4087" stop-color="#FFBD00"/>
<stop offset="0.7754" stop-color="#FFA500"/>
<stop offset="1" stop-color="#FF9C00"/>
</linearGradient>
<linearGradient id="paint2_linear_2952_4327" x1="25.0932" y1="22.5332" x2="2.0916" y2="45.5348" gradientUnits="userSpaceOnUse">
<stop stop-color="#FF3A44"/>
<stop offset="1" stop-color="#C31162"/>
</linearGradient>
<linearGradient id="paint3_linear_2952_4327" x1="7.37524" y1="0.178776" x2="17.6461" y2="10.4496" gradientUnits="userSpaceOnUse">
<stop stop-color="#32A071"/>
<stop offset="0.0685" stop-color="#2DA771"/>
<stop offset="0.4762" stop-color="#15CF74"/>
<stop offset="0.8009" stop-color="#06E775"/>
<stop offset="1" stop-color="#00F076"/>
</linearGradient>
</defs>
</svg>
