<svg width="35" height="36" viewBox="0 0 35 36" fill="none" xmlns="http://www.w3.org/2000/svg">
<path d="M15.2065 1.09598C16.1523 -0.365465 18.2906 -0.365465 19.2363 1.09598L20.4883 3.03066C21.1055 3.98442 22.3069 4.37478 23.3669 3.96596L25.5169 3.13668C27.1411 2.51024 28.871 3.76709 28.7771 5.50533L28.6528 7.80642C28.5916 8.94083 29.3341 9.96279 30.4319 10.2551L32.6588 10.8479C34.3409 11.2958 35.0017 13.3294 33.904 14.6805L32.4509 16.4691C31.7346 17.3508 31.7346 18.614 32.4509 19.4958L33.904 21.2843C35.0017 22.6354 34.3409 24.669 32.6588 25.1169L30.4319 25.7098C29.3341 26.002 28.5916 27.024 28.6528 28.1584L28.7771 30.4595C28.871 32.1977 27.1411 33.4546 25.5169 32.8282L23.3669 31.9989C22.3069 31.5901 21.1055 31.9804 20.4883 32.9342L19.2363 34.8689C18.2906 36.3303 16.1523 36.3303 15.2065 34.8689L13.9545 32.9342C13.3373 31.9804 12.1359 31.5901 11.076 31.9989L8.92592 32.8282C7.30177 33.4546 5.57187 32.1978 5.66575 30.4595L5.79004 28.1584C5.85131 27.024 5.10881 26.002 4.01099 25.7098L1.78412 25.1169C0.10194 24.669 -0.558825 22.6354 0.538842 21.2843L1.99194 19.4958C2.70829 18.614 2.70829 17.3508 1.99194 16.4691L0.538841 14.6805C-0.558825 13.3294 0.10194 11.2958 1.78412 10.8479L4.01099 10.2551C5.10881 9.96279 5.85131 8.94083 5.79004 7.80642L5.66575 5.50533C5.57187 3.76709 7.30177 2.51024 8.92592 3.13668L11.076 3.96596C12.1359 4.37478 13.3373 3.98443 13.9545 3.03066L15.2065 1.09598Z" fill="#E0E0E0"/>
</svg>
