<svg width="540" height="540" viewBox="0 0 540 540" fill="none" xmlns="http://www.w3.org/2000/svg">
<path d="M270.001 0C252.88 0 236.149 1.58726 219.925 4.64181C195.342 9.2509 171.94 17.1873 150.211 27.9573C61.1858 72.1064 0 163.917 0 270.008C0 419.119 120.868 540 270.001 540C419.116 540 540 419.119 540 270.008C540 120.881 419.116 0 270.001 0ZM269.764 78.2018C314.674 78.2018 355.903 94.0391 388.253 120.494C420.18 146.577 443.461 182.978 453.102 224.662H354.67C338.583 193.445 306.249 172.137 268.97 172.137C215.652 172.137 172.415 215.763 172.415 269.605C172.415 280.576 174.205 291.112 177.514 300.955C177.784 301.732 178.054 302.509 178.34 303.267C151.444 283.65 134.274 253.868 134.274 220.525C134.274 202.765 139.138 186.033 147.748 171.295C149.925 167.547 152.355 163.934 155.007 160.473L131.15 139.587C165.543 101.855 214.91 78.2018 269.764 78.2018ZM269.764 457.814C168.836 457.814 86.4773 377.755 81.7329 277.216C109.489 338.689 166.539 380.828 232.367 380.828C285.281 380.828 332.485 353.613 363.4 311.035H453.187C433.856 395.127 359.06 457.814 269.764 457.814Z" fill="#DC1F5C"/>
</svg>
